name rise49.8558peak67.6521fall70.3087.mot
datacolumns 19
datarows 36
range 16.65160600000000 16.70994000000000
endheader
time	ground_force1_vx	ground_force1_vy	ground_force1_vz	ground_force1_px	ground_force1_py	ground_force1_pz	ground_force2_vx	ground_force2_vy	ground_force2_vz	ground_force2_px	ground_force2_py	ground_force2_pz	ground_torque1_x	ground_torque1_y	ground_torque1_z	ground_torque2_x	ground_torque2_y	ground_torque2_z	
16.65160600000000	0.52532000000000	677.28284599999995	38.58275100000000	0.25075800000000	0.00000000000000	0.11742200000000	0.00000000000000	0.00000000000000	0.00000000000000	0.00000000000000	0.00000000000000	0.00000000000000	0.00000000000000	19.01120600000000	0.00000000000000	0.00000000000000	0.00000000000000	0.00000000000000	
16.65326600000000	-0.05131100000000	678.03638599999999	38.66792600000000	0.25013400000000	0.00000000000000	0.11744400000000	0.00000000000000	0.00000000000000	0.00000000000000	0.00000000000000	0.00000000000000	0.00000000000000	0.00000000000000	19.14014900000000	0.00000000000000	0.00000000000000	0.00000000000000	0.00000000000000	
16.65493700000000	-0.64315000000000	678.85437100000001	38.75864100000000	0.24952000000000	0.00000000000000	0.11746500000000	0.00000000000000	0.00000000000000	0.00000000000000	0.00000000000000	0.00000000000000	0.00000000000000	0.00000000000000	19.27658700000000	0.00000000000000	0.00000000000000	0.00000000000000	0.00000000000000	
16.65660200000000	-1.25058500000000	679.73600799999997	38.85451200000000	0.24891300000000	0.00000000000000	0.11748600000000	0.00000000000000	0.00000000000000	0.00000000000000	0.00000000000000	0.00000000000000	0.00000000000000	0.00000000000000	19.42026600000000	0.00000000000000	0.00000000000000	0.00000000000000	0.00000000000000	
16.65827100000000	-1.87396700000000	680.68053499999996	38.95517800000000	0.24831000000000	0.00000000000000	0.11750700000000	0.00000000000000	0.00000000000000	0.00000000000000	0.00000000000000	0.00000000000000	0.00000000000000	0.00000000000000	19.57093100000000	0.00000000000000	0.00000000000000	0.00000000000000	0.00000000000000	
16.65994400000000	-2.51359900000000	681.68722900000000	39.06030600000000	0.24770900000000	0.00000000000000	0.11752800000000	0.00000000000000	0.00000000000000	0.00000000000000	0.00000000000000	0.00000000000000	0.00000000000000	0.00000000000000	19.72833000000000	0.00000000000000	0.00000000000000	0.00000000000000	0.00000000000000	
16.66161000000000	-3.16974300000000	682.75539900000001	39.16958700000000	0.24710700000000	0.00000000000000	0.11754900000000	0.00000000000000	0.00000000000000	0.00000000000000	0.00000000000000	0.00000000000000	0.00000000000000	0.00000000000000	19.89221200000000	0.00000000000000	0.00000000000000	0.00000000000000	0.00000000000000	
16.66326900000000	-3.84261400000000	683.88438699999995	39.28273900000000	0.24650100000000	0.00000000000000	0.11757000000000	0.00000000000000	0.00000000000000	0.00000000000000	0.00000000000000	0.00000000000000	0.00000000000000	0.00000000000000	20.06232800000000	0.00000000000000	0.00000000000000	0.00000000000000	0.00000000000000	
16.66494200000000	-4.53238000000000	685.07356900000002	39.39950700000000	0.24588800000000	0.00000000000000	0.11759000000000	0.00000000000000	0.00000000000000	0.00000000000000	0.00000000000000	0.00000000000000	0.00000000000000	0.00000000000000	20.23843000000000	0.00000000000000	0.00000000000000	0.00000000000000	0.00000000000000	
16.66660800000000	-5.23915700000000	686.32234600000004	39.51966300000000	0.24526700000000	0.00000000000000	0.11761100000000	0.00000000000000	0.00000000000000	0.00000000000000	0.00000000000000	0.00000000000000	0.00000000000000	0.00000000000000	20.42027400000000	0.00000000000000	0.00000000000000	0.00000000000000	0.00000000000000	
16.66826800000000	-5.96301300000000	687.63014499999997	39.64300700000000	0.24463500000000	0.00000000000000	0.11763100000000	0.00000000000000	0.00000000000000	0.00000000000000	0.00000000000000	0.00000000000000	0.00000000000000	0.00000000000000	20.60761600000000	0.00000000000000	0.00000000000000	0.00000000000000	0.00000000000000	
16.66993800000000	-6.70396500000000	688.99641699999995	39.76936500000000	0.24398900000000	0.00000000000000	0.11765200000000	0.00000000000000	0.00000000000000	0.00000000000000	0.00000000000000	0.00000000000000	0.00000000000000	0.00000000000000	20.80021700000000	0.00000000000000	0.00000000000000	0.00000000000000	0.00000000000000	
16.67160600000000	-7.46197500000000	690.42062799999997	39.89859000000000	0.24332700000000	0.00000000000000	0.11767300000000	0.00000000000000	0.00000000000000	0.00000000000000	0.00000000000000	0.00000000000000	0.00000000000000	0.00000000000000	20.99783800000000	0.00000000000000	0.00000000000000	0.00000000000000	0.00000000000000	
16.67327400000000	-8.23695400000000	691.90225799999996	40.03056200000000	0.24264800000000	0.00000000000000	0.11769400000000	0.00000000000000	0.00000000000000	0.00000000000000	0.00000000000000	0.00000000000000	0.00000000000000	0.00000000000000	21.20024600000000	0.00000000000000	0.00000000000000	0.00000000000000	0.00000000000000	
16.67493600000000	-9.02875700000000	693.44079699999998	40.16518500000000	0.24195000000000	0.00000000000000	0.11771500000000	0.00000000000000	0.00000000000000	0.00000000000000	0.00000000000000	0.00000000000000	0.00000000000000	0.00000000000000	21.40720800000000	0.00000000000000	0.00000000000000	0.00000000000000	0.00000000000000	
16.67660400000000	-9.83718600000000	695.03573600000004	40.30239000000000	0.24122900000000	0.00000000000000	0.11773600000000	0.00000000000000	0.00000000000000	0.00000000000000	0.00000000000000	0.00000000000000	0.00000000000000	0.00000000000000	21.61849500000000	0.00000000000000	0.00000000000000	0.00000000000000	0.00000000000000	
16.67827700000000	-10.66198500000000	696.68656199999998	40.44213300000000	0.24048600000000	0.00000000000000	0.11775800000000	0.00000000000000	0.00000000000000	0.00000000000000	0.00000000000000	0.00000000000000	0.00000000000000	0.00000000000000	21.83388000000000	0.00000000000000	0.00000000000000	0.00000000000000	0.00000000000000	
16.67994200000000	-11.50284800000000	698.39275499999997	40.58439300000000	0.23971900000000	0.00000000000000	0.11778000000000	0.00000000000000	0.00000000000000	0.00000000000000	0.00000000000000	0.00000000000000	0.00000000000000	0.00000000000000	22.05314000000000	0.00000000000000	0.00000000000000	0.00000000000000	0.00000000000000	
16.68160400000000	-12.35941000000000	700.15378099999998	40.72917300000000	0.23892600000000	0.00000000000000	0.11780300000000	0.00000000000000	0.00000000000000	0.00000000000000	0.00000000000000	0.00000000000000	0.00000000000000	0.00000000000000	22.27605400000000	0.00000000000000	0.00000000000000	0.00000000000000	0.00000000000000	
16.68327400000000	-13.23125200000000	701.96907999999996	40.87649600000000	0.23810600000000	0.00000000000000	0.11782600000000	0.00000000000000	0.00000000000000	0.00000000000000	0.00000000000000	0.00000000000000	0.00000000000000	0.00000000000000	22.50240400000000	0.00000000000000	0.00000000000000	0.00000000000000	0.00000000000000	
16.68493300000000	-14.11790100000000	703.83806900000002	41.02640900000000	0.23725900000000	0.00000000000000	0.11784900000000	0.00000000000000	0.00000000000000	0.00000000000000	0.00000000000000	0.00000000000000	0.00000000000000	0.00000000000000	22.73197400000000	0.00000000000000	0.00000000000000	0.00000000000000	0.00000000000000	
16.68660100000000	-15.01883200000000	705.76012600000001	41.17897800000000	0.23638300000000	0.00000000000000	0.11787300000000	0.00000000000000	0.00000000000000	0.00000000000000	0.00000000000000	0.00000000000000	0.00000000000000	0.00000000000000	22.96455100000000	0.00000000000000	0.00000000000000	0.00000000000000	0.00000000000000	
16.68826700000000	-15.93346500000000	707.73458900000003	41.33428800000000	0.23547900000000	0.00000000000000	0.11789700000000	0.00000000000000	0.00000000000000	0.00000000000000	0.00000000000000	0.00000000000000	0.00000000000000	0.00000000000000	23.19992300000000	0.00000000000000	0.00000000000000	0.00000000000000	0.00000000000000	
16.68993400000000	-16.86116900000000	709.76074800000004	41.49244300000000	0.23454600000000	0.00000000000000	0.11792100000000	0.00000000000000	0.00000000000000	0.00000000000000	0.00000000000000	0.00000000000000	0.00000000000000	0.00000000000000	23.43788200000000	0.00000000000000	0.00000000000000	0.00000000000000	0.00000000000000	
16.69161000000000	-17.80126300000000	711.83783500000004	41.65356200000000	0.23358500000000	0.00000000000000	0.11794600000000	0.00000000000000	0.00000000000000	0.00000000000000	0.00000000000000	0.00000000000000	0.00000000000000	0.00000000000000	23.67822200000000	0.00000000000000	0.00000000000000	0.00000000000000	0.00000000000000	
16.69326600000000	-18.75301700000000	713.96502299999997	41.81778300000000	0.23259400000000	0.00000000000000	0.11797200000000	0.00000000000000	0.00000000000000	0.00000000000000	0.00000000000000	0.00000000000000	0.00000000000000	0.00000000000000	23.92073700000000	0.00000000000000	0.00000000000000	0.00000000000000	0.00000000000000	
16.69493600000000	-19.71565300000000	716.14141500000005	41.98525500000000	0.23157500000000	0.00000000000000	0.11799800000000	0.00000000000000	0.00000000000000	0.00000000000000	0.00000000000000	0.00000000000000	0.00000000000000	0.00000000000000	24.16522400000000	0.00000000000000	0.00000000000000	0.00000000000000	0.00000000000000	
16.69660800000000	-20.68835000000000	718.36604000000000	42.15614300000000	0.23052900000000	0.00000000000000	0.11802400000000	0.00000000000000	0.00000000000000	0.00000000000000	0.00000000000000	0.00000000000000	0.00000000000000	0.00000000000000	24.41148100000000	0.00000000000000	0.00000000000000	0.00000000000000	0.00000000000000	
16.69827100000000	-21.67024100000000	720.63784299999998	42.33062100000000	0.22945500000000	0.00000000000000	0.11805100000000	0.00000000000000	0.00000000000000	0.00000000000000	0.00000000000000	0.00000000000000	0.00000000000000	0.00000000000000	24.65930900000000	0.00000000000000	0.00000000000000	0.00000000000000	0.00000000000000	
16.69994000000000	-22.66041900000000	722.95568600000001	42.50887800000000	0.22835500000000	0.00000000000000	0.11807800000000	0.00000000000000	0.00000000000000	0.00000000000000	0.00000000000000	0.00000000000000	0.00000000000000	0.00000000000000	24.90850600000000	0.00000000000000	0.00000000000000	0.00000000000000	0.00000000000000	
16.70160800000000	-23.65793900000000	725.31833700000004	42.69110800000000	0.22723100000000	0.00000000000000	0.11810500000000	0.00000000000000	0.00000000000000	0.00000000000000	0.00000000000000	0.00000000000000	0.00000000000000	0.00000000000000	25.15887400000000	0.00000000000000	0.00000000000000	0.00000000000000	0.00000000000000	
16.70327300000000	-24.66181900000000	727.72446500000001	42.87751500000000	0.22608200000000	0.00000000000000	0.11813300000000	0.00000000000000	0.00000000000000	0.00000000000000	0.00000000000000	0.00000000000000	0.00000000000000	0.00000000000000	25.41021600000000	0.00000000000000	0.00000000000000	0.00000000000000	0.00000000000000	
16.70493900000000	-25.67104300000000	730.17263900000000	43.06830900000000	0.22491100000000	0.00000000000000	0.11816100000000	0.00000000000000	0.00000000000000	0.00000000000000	0.00000000000000	0.00000000000000	0.00000000000000	0.00000000000000	25.66233300000000	0.00000000000000	0.00000000000000	0.00000000000000	0.00000000000000	
16.70660600000000	-26.68456700000000	732.66132000000005	43.26370500000000	0.22372000000000	0.00000000000000	0.11818900000000	0.00000000000000	0.00000000000000	0.00000000000000	0.00000000000000	0.00000000000000	0.00000000000000	0.00000000000000	25.91502800000000	0.00000000000000	0.00000000000000	0.00000000000000	0.00000000000000	
16.70826900000000	-27.70131500000000	735.18885999999998	43.46392300000000	0.22250900000000	0.00000000000000	0.11821700000000	0.00000000000000	0.00000000000000	0.00000000000000	0.00000000000000	0.00000000000000	0.00000000000000	0.00000000000000	26.16810200000000	0.00000000000000	0.00000000000000	0.00000000000000	0.00000000000000	
16.70994000000000	-28.72019200000000	737.75349700000004	43.66918300000000	0.22128100000000	0.00000000000000	0.11824600000000	0.00000000000000	0.00000000000000	0.00000000000000	0.00000000000000	0.00000000000000	0.00000000000000	0.00000000000000	26.42135700000000	0.00000000000000	0.00000000000000	0.00000000000000	0.00000000000000	
